<?xml version="1.0" encoding="iso-8859-1"?>
<!-- Uploaded to: SVG Repo, www.svgrepo.com, Generator: SVG Repo Mixer Tools -->
<svg height="800px" width="800px" version="1.1" id="Layer_1" xmlns="http://www.w3.org/2000/svg" xmlns:xlink="http://www.w3.org/1999/xlink" 
	 viewBox="0 0 512 512" xml:space="preserve">
<circle style="fill:#5B5D6E;" cx="256" cy="256" r="176.552"/>
<circle style="fill:#464655;" cx="256" cy="256" r="158.897"/>
<path style="fill:#AFB9D2;" d="M256,0C114.615,0,0,114.615,0,256s114.615,256,256,256s256-114.615,256-256S397.385,0,256,0z
	 M256,35.31c39.003,0,70.621,31.618,70.621,70.621S295.003,176.552,256,176.552s-70.621-31.618-70.621-70.621
	S216.998,35.31,256,35.31z M114.759,326.621c-39.002,0-70.621-31.618-70.621-70.621s31.618-70.621,70.621-70.621
	s70.621,31.618,70.621,70.621S153.761,326.621,114.759,326.621z M256,467.862c-39.002,0-70.621-31.618-70.621-70.621
	s31.618-70.621,70.621-70.621s70.621,31.618,70.621,70.621S295.003,467.862,256,467.862z M397.241,326.621
	c-39.002,0-70.621-31.618-70.621-70.621s31.618-70.621,70.621-70.621s70.621,31.618,70.621,70.621S436.244,326.621,397.241,326.621z
	"/>
<circle style="fill:#C7CFE2;" cx="256" cy="256" r="35.31"/>
<circle style="fill:#5B5D6E;" cx="256" cy="256" r="17.655"/>
<g>
	<path style="fill:#C7CFE2;" d="M203.034,211.862c-2.259,0-4.518-0.862-6.241-2.586L90.862,103.345
		c-3.448-3.448-3.448-9.035,0-12.483c3.448-3.448,9.035-3.448,12.483,0l105.931,105.931c3.448,3.448,3.448,9.035,0,12.483
		C207.552,211,205.293,211.862,203.034,211.862z"/>
	<path style="fill:#C7CFE2;" d="M414.897,423.724c-2.259,0-4.518-0.862-6.241-2.586L302.724,315.207
		c-3.448-3.448-3.448-9.035,0-12.483s9.035-3.448,12.483,0l105.931,105.931c3.448,3.448,3.448,9.035,0,12.483
		C419.414,422.862,417.155,423.724,414.897,423.724z"/>
	<path style="fill:#C7CFE2;" d="M308.966,211.862c-2.259,0-4.518-0.862-6.241-2.586c-3.448-3.448-3.448-9.035,0-12.483
		L408.655,90.861c3.448-3.448,9.035-3.448,12.483,0s3.448,9.035,0,12.483L315.208,209.276
		C313.483,211,311.224,211.862,308.966,211.862z"/>
	<path style="fill:#C7CFE2;" d="M97.103,423.724c-2.259,0-4.518-0.862-6.241-2.586c-3.448-3.448-3.448-9.035,0-12.483
		l105.931-105.931c3.448-3.448,9.035-3.448,12.483,0s3.448,9.035,0,12.483L103.346,421.138
		C101.621,422.862,99.362,423.724,97.103,423.724z"/>
</g>
</svg>